<?xml version="1.0" standalone="no"?>
<!DOCTYPE svg PUBLIC "-//W3C//DTD SVG 20010904//EN"
 "http://www.w3.org/TR/2001/REC-SVG-20010904/DTD/svg10.dtd">
<svg version="1.0" xmlns="http://www.w3.org/2000/svg"
 width="1199.000000pt" height="857.000000pt" viewBox="0 0 1199.000000 857.000000"
 preserveAspectRatio="xMidYMid meet">

<g transform="translate(0.000000,857.000000) scale(0.100000,-0.100000)"
fill="#000000" stroke="none">
<path d="M766 8548 c-17 -81 -5 -619 19 -848 28 -266 93 -618 150 -820 7 -25
21 -74 30 -110 22 -80 106 -335 135 -410 12 -30 27 -71 35 -91 12 -32 27 -69
72 -169 28 -62 130 -264 152 -300 11 -19 24 -42 28 -50 7 -16 121 -185 250
-372 41 -60 70 -108 66 -108 -9 0 -7 -2 -114 125 -155 186 -313 409 -423 597
-160 274 -351 762 -456 1163 -4 17 -29 109 -54 206 -25 97 -59 212 -74 255
-28 75 -31 79 -71 92 -52 17 -64 13 -95 -35 -39 -59 -52 -161 -38 -302 7 -64
19 -197 27 -296 46 -556 81 -797 152 -1070 60 -228 125 -392 210 -525 168
-262 186 -288 285 -419 146 -192 270 -317 535 -538 62 -51 113 -96 113 -99 0
-17 -201 115 -320 210 -109 88 -387 364 -494 491 -165 196 -240 302 -337 475
-145 259 -171 311 -200 388 -43 113 -86 160 -157 171 -51 8 -52 8 -72 -24 -11
-18 -23 -47 -26 -64 -7 -35 21 -195 63 -351 13 -52 29 -131 33 -175 10 -86 34
-179 75 -290 15 -38 30 -81 35 -95 17 -52 161 -380 215 -490 112 -226 231
-386 455 -611 91 -91 204 -196 253 -233 78 -61 109 -90 75 -70 -113 64 -332
250 -515 435 -229 232 -358 389 -480 584 -77 122 -103 143 -187 152 l-55 6
-11 -44 c-49 -179 131 -706 375 -1099 165 -265 384 -499 620 -661 251 -172
522 -288 908 -389 79 -21 47 -21 -49 -1 -258 55 -404 108 -744 268 -204 97
-253 115 -296 110 -60 -6 -97 -28 -116 -67 -109 -217 315 -777 731 -967 240
-110 479 -152 866 -154 165 -1 238 -4 215 -10 -76 -19 -263 -21 -398 -5 -320
38 -417 12 -416 -114 0 -46 5 -64 36 -110 63 -97 218 -232 365 -319 236 -140
523 -188 868 -146 108 13 267 43 320 60 15 5 17 4 5 -3 -15 -10 -148 -44 -322
-82 -76 -17 -107 -29 -142 -56 -39 -29 -46 -40 -46 -69 0 -76 47 -135 164
-203 234 -138 503 -211 725 -199 164 9 306 44 503 122 68 27 80 11 39 -49
-124 -180 -50 -377 192 -515 158 -89 337 -87 536 7 30 14 75 39 99 55 l43 29
107 -30 c235 -66 427 -92 680 -92 339 0 599 48 934 171 23 9 33 5 89 -40 106
-86 260 -153 379 -167 131 -15 283 47 397 161 93 93 117 143 117 250 1 70 -3
86 -28 132 -16 29 -52 78 -80 110 l-51 57 65 -36 c64 -35 203 -95 270 -116
200 -63 436 -64 645 -2 160 47 407 182 453 248 12 16 27 52 33 80 12 49 11 51
-17 77 -34 31 -121 75 -149 75 -27 0 -296 68 -304 76 -3 4 8 3 24 -1 376 -94
706 -85 965 25 190 82 428 281 493 413 43 89 31 154 -36 196 -29 18 -51 21
-143 22 l-109 1 110 18 c250 41 427 104 586 210 190 126 386 342 503 554 81
147 101 300 48 360 -22 24 -74 46 -110 46 -37 0 -64 -11 -300 -126 -310 -152
-438 -199 -696 -259 -78 -18 -102 -14 -29 5 758 197 1250 597 1578 1284 35 73
71 151 79 172 138 370 181 558 156 678 l-12 59 -54 -6 c-77 -8 -115 -35 -154
-109 -63 -121 -222 -336 -383 -522 -163 -188 -431 -435 -567 -525 l-35 -23 36
33 c19 19 76 69 126 112 142 121 344 351 454 517 175 263 459 979 459 1156 0
23 13 95 29 161 37 152 61 279 61 322 0 19 -11 53 -25 76 l-24 43 -48 -9 c-85
-16 -98 -33 -166 -205 -20 -51 -47 -111 -60 -135 -63 -114 -88 -160 -131 -242
-205 -390 -702 -937 -1018 -1121 -27 -15 -48 -26 -48 -23 0 3 76 73 168 156
304 272 416 412 689 861 61 101 95 172 149 310 43 110 106 379 138 585 24 157
44 334 61 545 8 107 22 265 30 350 28 287 16 397 -49 458 l-31 29 -41 -18
c-39 -18 -43 -24 -67 -96 -15 -43 -40 -134 -57 -203 -17 -69 -42 -168 -55
-220 -14 -52 -27 -106 -31 -120 -52 -204 -209 -663 -254 -742 -6 -10 -10 -22
-10 -28 0 -23 -147 -314 -208 -412 -9 -15 -35 -55 -56 -90 -53 -85 -195 -289
-253 -364 -60 -77 -151 -177 -130 -144 43 69 127 198 203 315 94 143 237 426
308 607 39 99 115 325 170 508 16 50 66 258 90 365 36 169 68 368 91 575 18
161 37 760 27 845 l-7 60 -67 3 c-77 3 -108 -9 -108 -42 0 -12 -26 -103 -59
-202 -32 -98 -80 -246 -105 -329 -26 -82 -53 -168 -61 -190 -7 -22 -34 -107
-60 -190 -65 -207 -105 -325 -168 -500 -50 -135 -69 -185 -140 -350 -46 -108
-155 -317 -238 -457 -350 -587 -707 -989 -1374 -1544 -28 -23 -142 -117 -255
-210 -113 -93 -238 -197 -279 -231 -41 -35 -77 -63 -81 -63 -3 0 -31 35 -60
78 -279 400 -685 732 -1119 913 -337 141 -619 199 -971 199 -564 0 -1165 -200
-1600 -531 -109 -82 -404 -388 -475 -491 -33 -48 -64 -87 -70 -87 -5 0 -51 32
-101 72 -50 40 -137 108 -194 152 -847 655 -1221 1027 -1595 1585 -183 272
-301 487 -412 750 -111 263 -135 328 -318 875 -79 237 -167 497 -195 579 -27
82 -50 159 -50 172 0 33 -28 44 -109 44 -65 0 -71 -2 -75 -22z m148 -62 c4
-23 18 -72 32 -111 14 -38 90 -263 169 -500 220 -654 255 -752 352 -979 181
-425 436 -835 761 -1224 92 -110 345 -372 487 -503 147 -136 516 -438 805
-659 25 -19 47 -37 50 -40 3 -3 53 -43 113 -89 115 -88 115 -89 72 -141 -27
-32 -139 -243 -189 -356 -84 -188 -135 -351 -186 -594 -17 -84 -40 -343 -40
-455 0 -114 23 -361 44 -480 47 -259 140 -522 273 -774 51 -96 62 -125 51
-132 -24 -15 -320 -107 -428 -133 -190 -45 -313 -60 -495 -60 -297 0 -479 55
-702 210 -279 195 -377 372 -228 414 46 13 69 12 320 -10 147 -14 335 -8 475
15 255 41 412 75 459 100 24 12 24 12 -13 19 -21 4 -61 5 -89 1 -134 -15 -499
-35 -648 -35 -487 0 -819 88 -1080 285 -198 149 -366 348 -461 545 -67 138
-61 243 13 269 48 17 62 14 151 -28 86 -40 165 -76 278 -129 69 -31 234 -101
285 -120 87 -32 290 -87 362 -98 21 -3 56 -10 78 -15 22 -6 164 -12 315 -15
l275 -4 -40 20 c-28 13 -81 22 -170 30 -72 6 -157 17 -190 25 -33 8 -100 23
-150 35 -371 84 -678 210 -926 377 -108 73 -121 83 -253 199 -167 146 -374
425 -501 674 -152 300 -255 613 -255 778 0 96 7 103 72 74 36 -16 51 -32 91
-101 239 -403 824 -974 1159 -1130 116 -53 238 -86 238 -63 0 20 -49 60 -110
91 -272 138 -649 488 -857 796 -161 239 -427 875 -447 1070 -4 39 -16 106 -28
150 -11 44 -33 145 -49 225 -29 136 -29 147 -15 177 11 24 22 33 40 33 46 0
81 -44 126 -155 23 -58 73 -160 111 -226 38 -65 83 -147 101 -180 97 -178 218
-340 436 -582 242 -267 542 -513 737 -602 60 -27 174 -59 182 -51 3 2 -89 84
-204 182 -355 304 -453 402 -611 614 -109 148 -273 401 -317 489 -108 218
-205 584 -240 906 -3 28 -10 82 -15 120 -5 39 -16 156 -25 260 -8 105 -20 240
-26 300 -19 179 -22 352 -9 398 36 131 92 100 140 -78 4 -16 27 -102 50 -190
108 -418 200 -696 317 -965 8 -19 22 -51 30 -70 156 -362 459 -806 743 -1090
99 -99 238 -208 214 -168 -9 15 -193 286 -277 408 -113 164 -225 335 -255 391
-134 244 -228 463 -318 739 -64 196 -73 225 -112 390 -115 484 -148 747 -159
1272 l-6 306 29 4 c54 6 82 -11 88 -56z m10153 -280 c-9 -484 -39 -757 -131
-1176 -19 -89 -40 -170 -66 -265 -12 -44 -26 -93 -30 -110 -8 -31 -88 -271
-114 -340 -92 -250 -228 -523 -361 -725 -295 -449 -367 -561 -363 -566 2 -2
40 25 84 59 164 130 392 420 611 777 155 253 308 617 430 1025 51 169 60 204
103 385 23 96 54 218 71 270 16 52 29 100 29 107 0 6 13 16 29 21 27 9 30 8
51 -31 21 -36 23 -54 23 -156 0 -64 -7 -201 -17 -306 -9 -104 -23 -271 -32
-370 -26 -302 -75 -630 -119 -785 -7 -25 -20 -74 -30 -110 -39 -145 -114 -327
-173 -417 -15 -24 -63 -102 -107 -174 -175 -287 -347 -486 -660 -764 -177
-157 -259 -240 -230 -232 11 3 40 11 65 17 149 39 367 199 622 457 279 281
453 514 614 818 32 61 69 130 84 155 23 40 40 77 106 240 24 57 43 84 71 98
35 19 51 14 69 -20 14 -26 14 -40 5 -87 -6 -31 -20 -102 -31 -158 -11 -56 -25
-114 -30 -127 -5 -14 -16 -78 -25 -143 -22 -159 -62 -293 -162 -543 -56 -137
-62 -151 -140 -324 -117 -255 -242 -427 -497 -682 -171 -171 -310 -281 -445
-353 -56 -31 -87 -54 -98 -74 l-15 -30 43 7 c188 30 422 188 724 491 152 151
291 310 405 460 62 81 157 226 166 251 20 57 90 114 139 114 21 0 21 -136 -1
-233 -48 -221 -182 -566 -300 -777 -54 -96 -189 -296 -247 -365 -290 -344
-633 -559 -1122 -703 -94 -28 -139 -39 -296 -76 -36 -8 -119 -20 -185 -26
-131 -12 -150 -16 -179 -37 -30 -22 457 -12 570 11 184 39 358 90 463 137 113
52 178 82 354 168 104 50 197 91 208 91 29 0 78 -27 90 -49 26 -50 -5 -187
-67 -301 -93 -168 -305 -408 -453 -512 -241 -169 -552 -248 -981 -248 -155 0
-257 6 -554 30 -66 6 -133 7 -149 2 l-28 -8 28 -13 c34 -16 108 -35 207 -56
286 -59 476 -74 672 -55 237 23 287 23 325 3 32 -16 35 -23 38 -65 2 -28 -3
-59 -12 -76 -40 -78 -175 -210 -306 -299 -192 -130 -425 -192 -680 -180 -175
9 -382 46 -565 103 -92 29 -363 128 -383 141 -2 1 17 41 43 90 223 420 330
923 296 1391 -33 445 -138 795 -355 1179 l-35 61 187 153 c103 85 210 172 237
195 28 23 109 91 181 151 482 398 800 717 1073 1076 163 214 376 557 483 777
66 136 128 271 128 280 0 4 12 34 26 66 14 31 31 74 38 93 90 248 171 491 256
766 34 110 95 300 136 423 40 123 79 247 86 276 13 58 33 74 82 67 l29 -4 -6
-331z m-4867 -2991 c301 -34 657 -145 841 -264 l64 -41 -50 6 c-27 3 -77 10
-110 16 -33 5 -137 12 -232 15 -190 6 -329 -8 -502 -53 -124 -33 -281 -90
-281 -104 0 -3 41 -18 91 -34 226 -73 538 -258 810 -481 114 -92 360 -307 378
-329 12 -14 12 -29 -3 -104 -25 -122 -71 -310 -96 -385 -5 -18 -28 -90 -51
-162 -23 -71 -50 -150 -59 -175 -19 -46 -87 -222 -133 -340 -95 -243 -117
-303 -117 -310 0 -4 8 -7 18 -5 9 2 105 9 212 15 336 19 598 49 858 97 96 17
142 30 142 39 0 38 -109 337 -166 454 -134 278 -235 420 -525 743 l-57 62 9
115 c5 63 13 174 19 245 5 72 10 159 10 195 0 55 -23 217 -46 323 -4 16 -2 27
4 27 35 0 325 -232 423 -338 344 -371 566 -839 640 -1352 7 -47 13 -159 13
-249 l1 -164 -148 -50 c-145 -49 -149 -51 -143 -76 85 -391 82 -690 -9 -896
-68 -156 -297 -454 -463 -605 -169 -153 -433 -330 -637 -427 -74 -35 -86 -38
-170 -38 -88 0 -93 1 -185 48 -107 54 -254 156 -386 268 -95 82 -234 223 -234
239 0 8 83 108 100 120 7 5 45 60 272 405 47 72 102 159 123 195 20 36 45 81
57 100 95 164 226 421 243 479 l7 23 -284 -8 c-155 -5 -523 -9 -816 -9 -372 0
-532 -3 -532 -11 0 -16 68 -169 108 -244 49 -92 158 -273 211 -350 109 -159
132 -191 209 -300 45 -63 122 -170 171 -237 127 -173 122 -151 52 -236 -171
-208 -424 -388 -652 -465 -96 -32 -117 -29 -255 38 -473 230 -847 574 -1060
975 -105 197 -127 494 -63 853 27 153 23 145 78 137 25 -3 62 -10 81 -16 251
-66 641 -121 952 -135 l147 -7 -8 29 c-10 34 -70 175 -80 189 -9 12 -87 198
-126 299 -45 116 -75 213 -125 411 -50 195 -125 482 -136 523 -4 13 -10 22
-14 20 -23 -10 -206 -239 -301 -378 -160 -235 -253 -417 -374 -740 -66 -176
-62 -170 -107 -170 -42 0 -173 49 -222 83 l-29 20 6 211 c7 239 28 369 96 591
68 223 227 524 395 748 155 207 236 292 401 424 120 95 153 118 182 127 l22 7
-24 -68 c-53 -146 -66 -213 -72 -368 -6 -163 7 -320 32 -403 l16 -53 47 38
c53 43 314 264 322 273 10 12 147 118 216 167 152 108 319 200 618 337 43 20
77 38 75 40 -2 2 -58 18 -124 36 -369 98 -419 105 -712 103 -128 0 -233 2
-233 6 0 7 163 83 274 128 77 32 280 90 381 110 216 42 504 54 725 28z m-4846
-1494 c-2 -3 -12 3 -22 13 -16 17 -16 18 5 5 12 -7 20 -15 17 -18z m8461
-1803 c-69 -14 -361 -14 -410 -1 -32 9 13 11 210 11 191 0 238 -3 200 -10z
m-1502 -542 c181 -88 212 -101 297 -128 123 -38 151 -46 355 -93 211 -49 168
-170 -110 -307 -83 -42 -186 -80 -275 -105 -93 -24 -376 -25 -477 -1 -124 31
-304 104 -383 157 -11 8 4 28 77 103 108 110 213 240 292 360 31 48 60 87 64
87 4 1 76 -32 160 -73z m-4509 -37 c78 -122 164 -227 291 -357 143 -147 140
-137 45 -173 -187 -71 -332 -94 -530 -86 -150 7 -258 31 -404 91 -122 51 -264
133 -297 172 -15 17 -39 76 -39 94 0 18 81 60 140 74 402 92 442 105 630 194
58 28 110 51 115 51 6 0 27 -27 49 -60z m3900 -566 c74 -88 90 -125 91 -198 0
-83 -37 -156 -116 -230 -72 -66 -148 -106 -246 -130 -70 -17 -76 -17 -145 0
-130 31 -239 84 -337 163 l-24 19 148 74 c157 77 343 196 476 304 45 36 85 65
89 65 5 0 33 -30 64 -67z m-3287 -79 c163 -123 420 -265 586 -325 37 -13 66
-28 64 -34 -7 -21 -158 -86 -257 -112 l-105 -27 -80 19 c-44 10 -102 29 -129
43 -181 89 -290 258 -246 379 10 25 71 123 77 123 2 0 42 -30 90 -66z"/>
<path d="M5515 6835 c-584 -37 -1027 -143 -1187 -284 -85 -76 -88 -150 -7
-226 208 -194 965 -321 1794 -300 412 10 801 57 1055 127 41 11 89 24 105 28
17 4 41 12 55 18 14 5 45 18 70 28 72 28 177 102 200 140 85 136 -69 259 -445
357 -127 34 -240 54 -490 87 -265 36 -796 47 -1150 25z m885 -35 c593 -44
1008 -149 1148 -287 59 -59 59 -97 -2 -158 -123 -122 -414 -204 -976 -272
-208 -26 -1045 -26 -1260 0 -392 47 -619 95 -800 169 -213 89 -268 181 -163
274 149 132 603 240 1153 274 96 6 193 12 215 14 72 7 537 -2 685 -14z"/>
<path d="M5570 6730 c-41 -4 -115 -10 -165 -14 -49 -4 -115 -11 -145 -16 -30
-5 -73 -11 -95 -15 -247 -34 -461 -109 -526 -183 -143 -163 223 -309 901 -357
738 -53 1531 46 1703 213 31 30 37 43 37 78 0 36 -5 47 -40 78 -106 96 -332
156 -755 202 -158 18 -793 27 -915 14z m850 -39 c427 -43 705 -113 800 -201
115 -108 -115 -220 -585 -286 -157 -21 -503 -43 -690 -43 -270 0 -692 34 -853
69 -26 6 -78 18 -117 26 -210 48 -347 126 -331 188 27 110 376 211 851 246 83
6 159 13 170 15 45 8 649 -3 755 -14z"/>
</g>
</svg>
