<?xml version="1.0" standalone="no"?>
<!DOCTYPE svg PUBLIC "-//W3C//DTD SVG 20010904//EN"
 "http://www.w3.org/TR/2001/REC-SVG-20010904/DTD/svg10.dtd">
<svg version="1.0" xmlns="http://www.w3.org/2000/svg"
 width="1280.000000pt" height="1117.000000pt" viewBox="0 0 1280.000000 1117.000000"
 preserveAspectRatio="xMidYMid meet">

<g transform="translate(0.000000,1117.000000) scale(0.100000,-0.100000)"
fill="#000000" stroke="none">
<path d="M11363 11143 c-31 -18 -43 -31 -43 -47 0 -12 -26 -103 -59 -202 -32
-98 -80 -246 -105 -329 -26 -82 -53 -168 -61 -190 -7 -22 -34 -107 -60 -190
-65 -207 -105 -325 -168 -500 -50 -135 -69 -185 -140 -350 -46 -108 -155 -317
-238 -457 -350 -587 -707 -989 -1374 -1544 -28 -23 -142 -117 -255 -210 -113
-93 -238 -197 -279 -231 -41 -35 -77 -63 -81 -63 -3 0 -31 35 -60 77 -279 401
-685 733 -1119 914 -337 141 -619 199 -971 199 -564 0 -1165 -200 -1600 -531
-109 -82 -404 -388 -475 -491 -33 -48 -64 -87 -70 -87 -5 0 -51 32 -101 72
-50 40 -137 108 -194 152 -847 655 -1221 1027 -1595 1585 -183 272 -301 487
-412 750 -111 263 -135 328 -318 875 -79 237 -167 497 -195 579 -27 82 -50
159 -50 172 0 36 -65 66 -125 57 -25 -3 -49 -11 -53 -17 -36 -57 -8 -780 43
-1106 31 -193 85 -458 120 -580 7 -25 21 -74 30 -110 22 -80 106 -335 135
-410 12 -30 27 -71 35 -91 12 -32 27 -69 72 -169 28 -62 130 -264 152 -300 11
-19 24 -42 28 -50 7 -16 121 -185 250 -372 41 -60 70 -108 66 -108 -9 0 -7 -2
-114 125 -155 186 -313 409 -423 597 -160 274 -351 762 -456 1163 -4 17 -29
109 -54 206 -25 97 -59 212 -74 255 -28 75 -31 79 -71 92 -52 17 -64 13 -95
-35 -39 -59 -52 -161 -38 -302 7 -64 19 -197 27 -296 46 -556 81 -797 152
-1070 60 -228 125 -392 210 -525 168 -262 186 -288 285 -419 146 -192 270
-317 535 -538 62 -51 113 -96 113 -99 0 -17 -201 115 -320 210 -109 88 -387
364 -494 491 -165 196 -240 302 -337 475 -145 259 -171 311 -200 388 -43 113
-86 160 -157 171 -51 8 -52 8 -72 -24 -11 -18 -23 -47 -26 -64 -7 -35 21 -195
63 -351 13 -52 29 -131 33 -175 10 -86 34 -179 75 -290 15 -38 30 -81 35 -95
17 -52 161 -380 215 -490 112 -226 231 -386 455 -611 91 -91 204 -196 252
-233 79 -61 110 -90 76 -70 -113 64 -332 250 -515 435 -229 232 -358 389 -480
584 -77 122 -103 143 -187 152 l-55 6 -11 -44 c-49 -179 131 -706 375 -1099
165 -265 384 -499 620 -661 251 -172 522 -288 908 -389 79 -21 47 -21 -49 -1
-258 55 -404 108 -744 268 -204 97 -253 115 -296 110 -60 -6 -97 -28 -116 -67
-109 -217 315 -777 731 -967 240 -110 479 -152 866 -154 165 -1 238 -4 215
-10 -76 -19 -263 -21 -398 -5 -320 38 -417 12 -416 -114 0 -46 5 -64 36 -110
63 -97 218 -232 365 -319 236 -140 523 -188 868 -146 108 13 267 43 320 60 15
5 17 4 5 -3 -15 -10 -148 -44 -322 -82 -76 -17 -107 -29 -142 -56 -39 -29 -46
-40 -46 -69 0 -76 47 -135 164 -203 234 -138 503 -211 725 -199 164 9 306 44
503 122 68 27 80 11 39 -49 -124 -180 -50 -377 192 -515 158 -89 337 -87 536
7 30 14 75 39 99 55 l43 29 107 -30 c235 -66 427 -92 680 -92 339 0 599 48
934 171 23 9 33 5 89 -40 106 -86 260 -153 379 -167 131 -15 283 47 397 161
93 93 117 143 117 250 1 70 -3 86 -28 132 -16 29 -52 78 -80 110 l-51 57 65
-36 c64 -35 203 -95 270 -116 200 -63 436 -64 645 -2 160 47 407 182 453 248
12 16 27 52 33 80 12 49 11 51 -17 77 -34 31 -121 75 -149 75 -27 0 -296 68
-304 76 -3 4 8 3 24 -1 376 -94 706 -85 965 25 190 82 428 281 493 413 43 89
31 154 -36 196 -29 18 -51 21 -143 22 l-109 1 110 18 c250 41 427 104 586 210
190 126 386 342 503 554 81 147 101 300 48 360 -22 24 -74 46 -110 46 -37 0
-64 -11 -300 -126 -310 -152 -438 -199 -696 -259 -78 -18 -102 -14 -29 5 758
197 1250 597 1578 1284 35 73 71 151 79 172 138 370 181 558 156 678 l-12 59
-54 -6 c-77 -8 -115 -35 -154 -109 -63 -121 -222 -336 -383 -522 -163 -188
-431 -435 -567 -525 l-35 -23 36 33 c19 19 76 69 126 112 142 121 344 351 454
517 175 263 459 979 459 1156 0 23 13 95 29 161 37 152 61 279 61 322 0 19
-11 53 -25 76 l-24 43 -48 -9 c-85 -16 -98 -33 -166 -205 -20 -51 -47 -111
-60 -135 -63 -114 -88 -160 -131 -242 -205 -390 -702 -937 -1018 -1121 -27
-15 -48 -26 -48 -23 0 3 76 73 168 156 304 272 416 412 689 861 61 101 95 172
149 310 42 110 106 380 138 585 24 157 44 334 61 545 8 107 22 265 30 350 28
287 16 397 -49 458 l-31 29 -41 -18 c-39 -18 -43 -24 -67 -96 -15 -43 -40
-134 -57 -203 -17 -69 -42 -168 -55 -220 -14 -52 -27 -106 -31 -120 -52 -204
-209 -663 -254 -742 -6 -10 -10 -22 -10 -28 0 -23 -147 -314 -208 -412 -9 -15
-35 -55 -56 -90 -53 -85 -195 -289 -253 -364 -60 -77 -151 -177 -130 -144 43
69 127 198 203 315 94 143 237 426 308 607 39 99 115 325 170 508 16 50 66
258 90 365 36 169 68 368 91 575 17 152 38 747 29 824 -10 90 -12 96 -40 96
-14 0 -33 4 -42 8 -12 6 -31 1 -59 -15z m-10059 -87 c4 -23 18 -72 32 -111 14
-38 90 -263 169 -500 220 -654 255 -752 352 -979 181 -425 436 -835 761 -1224
92 -110 345 -372 487 -503 147 -136 516 -438 805 -659 25 -19 47 -37 50 -40 3
-3 53 -43 113 -89 115 -88 115 -89 72 -141 -27 -32 -139 -243 -189 -356 -84
-188 -135 -351 -186 -594 -17 -84 -40 -343 -40 -455 0 -114 23 -361 44 -480
47 -259 140 -522 273 -774 51 -96 62 -125 51 -132 -24 -15 -320 -107 -428
-133 -190 -45 -313 -60 -495 -60 -297 0 -479 55 -702 210 -279 195 -377 372
-228 414 46 13 69 12 320 -10 147 -14 335 -8 475 15 255 41 412 75 459 100 24
12 24 12 -13 19 -21 4 -61 5 -89 1 -134 -15 -499 -35 -648 -35 -487 0 -819 88
-1080 285 -198 149 -366 348 -461 545 -67 138 -61 243 13 269 48 17 62 14 151
-28 86 -40 165 -76 278 -129 69 -31 234 -101 285 -120 87 -32 290 -87 362 -98
21 -3 56 -10 78 -15 22 -6 164 -12 315 -15 l275 -4 -40 20 c-28 13 -81 22
-170 30 -72 6 -157 17 -190 25 -33 8 -100 23 -150 35 -371 84 -678 210 -926
377 -108 73 -121 83 -253 199 -167 146 -374 425 -501 674 -152 300 -255 613
-255 778 0 96 7 103 72 74 36 -16 51 -32 91 -101 239 -403 824 -974 1159
-1130 116 -53 238 -86 238 -63 0 20 -49 60 -110 91 -272 138 -649 488 -857
796 -161 239 -427 875 -447 1070 -4 39 -16 106 -28 150 -11 44 -33 145 -49
225 -29 136 -29 147 -15 177 11 24 22 33 40 33 46 0 81 -44 126 -155 23 -58
73 -160 111 -226 38 -65 83 -147 101 -180 97 -178 218 -340 436 -582 242 -267
542 -513 737 -602 60 -27 174 -59 182 -51 3 2 -89 84 -204 182 -355 304 -453
402 -611 614 -109 148 -273 401 -317 489 -108 218 -205 584 -240 906 -3 28
-10 82 -15 120 -5 39 -16 156 -25 260 -8 105 -20 240 -26 300 -19 179 -22 352
-9 398 36 131 92 100 140 -78 4 -16 27 -102 50 -190 108 -418 200 -696 317
-965 8 -19 22 -51 30 -70 156 -362 459 -806 743 -1090 99 -99 238 -208 214
-168 -9 15 -193 286 -277 408 -113 164 -225 335 -255 391 -134 244 -228 463
-318 739 -64 196 -73 225 -112 390 -115 484 -148 747 -159 1272 l-6 306 29 4
c54 6 82 -11 88 -56z m10153 -280 c-9 -484 -39 -757 -131 -1176 -19 -89 -40
-170 -66 -265 -12 -44 -26 -93 -30 -110 -8 -31 -88 -271 -114 -340 -92 -250
-228 -523 -361 -725 -295 -449 -367 -561 -363 -566 2 -2 40 25 84 59 164 130
392 420 611 777 155 253 308 617 430 1025 51 169 60 204 103 385 23 96 54 218
71 270 16 52 29 100 29 107 0 6 13 16 29 21 27 9 30 8 51 -31 21 -36 23 -54
23 -156 0 -64 -7 -201 -17 -306 -9 -104 -23 -271 -32 -370 -26 -302 -75 -630
-119 -785 -7 -25 -20 -74 -30 -110 -39 -145 -114 -327 -173 -417 -15 -24 -63
-102 -107 -174 -175 -287 -347 -486 -660 -764 -177 -157 -259 -240 -230 -232
11 3 40 11 65 17 149 39 367 199 622 457 279 281 453 514 614 818 32 61 69
130 84 155 23 40 40 77 106 240 24 57 43 84 71 98 35 19 51 14 69 -20 14 -26
14 -40 5 -87 -6 -31 -20 -102 -31 -158 -11 -56 -25 -114 -30 -127 -5 -14 -16
-78 -25 -143 -22 -159 -62 -293 -162 -543 -56 -137 -62 -151 -140 -324 -117
-255 -242 -427 -497 -682 -171 -171 -310 -281 -445 -353 -56 -31 -87 -54 -98
-74 l-15 -30 43 7 c188 30 422 188 724 491 152 151 291 310 405 460 62 81 157
226 166 251 20 57 90 114 139 114 21 0 21 -136 -1 -233 -48 -221 -182 -566
-300 -777 -54 -96 -189 -296 -247 -365 -290 -344 -633 -559 -1122 -703 -95
-28 -138 -39 -297 -76 -36 -9 -122 -21 -190 -27 -73 -6 -137 -17 -158 -27 -50
-24 -33 -25 240 -19 232 5 279 10 460 54 82 19 256 77 318 104 113 52 178 82
354 168 104 50 197 91 208 91 29 0 78 -27 90 -49 26 -50 -5 -187 -67 -301 -93
-168 -305 -408 -453 -512 -241 -169 -552 -248 -981 -248 -155 0 -257 6 -554
30 -66 6 -133 7 -149 2 l-28 -8 28 -13 c34 -16 108 -35 207 -56 286 -59 476
-74 672 -55 237 23 287 23 325 3 32 -16 35 -23 38 -65 2 -28 -3 -59 -12 -76
-40 -78 -175 -210 -306 -299 -192 -130 -425 -192 -680 -180 -175 9 -382 46
-565 103 -92 29 -363 128 -383 141 -2 1 17 41 43 90 223 420 330 923 296 1391
-33 445 -138 795 -355 1179 l-35 61 187 153 c103 85 210 172 237 195 28 23
109 91 181 151 482 398 800 717 1073 1076 163 214 376 557 483 777 66 136 128
271 128 280 0 4 12 34 26 66 14 31 31 74 38 93 90 248 171 491 256 766 34 110
95 300 136 423 40 123 79 247 86 276 13 58 33 74 82 67 l29 -4 -6 -331z
m-4867 -2991 c301 -34 657 -145 841 -264 l64 -41 -50 6 c-27 3 -77 10 -110 16
-33 5 -137 12 -232 15 -190 6 -329 -8 -502 -53 -124 -33 -281 -90 -281 -104 0
-3 41 -18 91 -34 226 -73 538 -258 810 -481 114 -92 360 -307 378 -329 12 -14
12 -29 -3 -104 -25 -122 -71 -310 -96 -385 -5 -18 -28 -90 -51 -162 -23 -71
-50 -150 -59 -175 -19 -46 -87 -222 -133 -340 -95 -243 -117 -303 -117 -310 0
-4 8 -7 18 -5 9 2 105 9 212 15 336 19 598 49 858 97 96 17 142 30 142 39 0
38 -109 337 -166 454 -134 278 -235 420 -525 743 l-57 62 9 115 c5 63 13 174
19 245 5 72 10 159 10 195 0 55 -23 217 -46 323 -4 16 -2 27 4 27 35 0 325
-232 423 -338 344 -371 567 -841 640 -1352 7 -46 13 -158 13 -249 l1 -164
-148 -50 c-145 -49 -149 -51 -143 -76 85 -391 82 -690 -9 -896 -68 -156 -297
-454 -463 -605 -169 -153 -433 -330 -637 -427 -74 -35 -86 -38 -170 -38 -88 0
-93 1 -185 48 -107 54 -254 156 -386 268 -95 82 -234 223 -234 239 0 8 83 108
100 120 7 5 45 60 272 405 47 72 102 159 123 195 20 36 45 81 57 100 95 164
226 421 243 479 l7 23 -284 -8 c-155 -5 -523 -9 -816 -9 -372 0 -532 -3 -532
-11 0 -16 68 -169 108 -244 49 -92 158 -273 211 -350 109 -159 132 -191 209
-300 45 -63 122 -170 171 -237 127 -173 122 -151 52 -236 -171 -208 -424 -388
-652 -465 -96 -32 -117 -29 -255 38 -473 230 -847 574 -1060 975 -105 197
-127 494 -63 853 27 153 23 145 78 137 25 -3 62 -10 81 -16 251 -66 641 -121
952 -135 l147 -7 -8 29 c-10 34 -70 175 -80 189 -9 12 -87 198 -126 299 -45
116 -75 213 -125 411 -50 195 -125 482 -136 523 -4 13 -10 22 -14 20 -23 -10
-206 -239 -301 -378 -160 -235 -253 -417 -374 -740 -66 -176 -62 -170 -107
-170 -42 0 -173 49 -222 83 l-29 20 6 211 c7 239 28 369 96 591 68 223 227
524 395 748 155 207 236 292 401 424 120 95 153 118 182 127 l22 7 -24 -68
c-53 -146 -66 -213 -72 -368 -6 -163 7 -320 32 -403 l16 -53 47 38 c53 43 314
264 322 273 10 12 147 118 216 167 152 108 319 200 618 337 43 20 77 38 75 40
-2 2 -58 18 -124 36 -369 98 -419 105 -712 103 -128 0 -233 2 -233 6 0 7 163
83 274 128 77 32 280 90 381 110 216 42 504 54 725 28z m-4846 -1494 c-2 -3
-12 3 -22 13 -16 17 -16 18 5 5 12 -7 20 -15 17 -18z m8461 -1803 c-69 -14
-361 -14 -410 -1 -32 9 13 11 210 11 191 0 238 -3 200 -10z m-1502 -542 c181
-88 212 -101 297 -128 123 -38 151 -46 355 -93 211 -49 168 -170 -110 -307
-83 -42 -186 -80 -275 -105 -93 -24 -376 -25 -477 -1 -124 31 -304 104 -383
157 -11 8 4 28 77 103 108 110 213 240 292 360 31 48 60 87 64 87 4 1 76 -32
160 -73z m-4509 -37 c78 -122 164 -227 291 -357 143 -147 140 -137 45 -173
-187 -71 -332 -94 -530 -86 -150 7 -258 31 -404 91 -122 51 -264 133 -297 172
-15 17 -39 76 -39 94 0 18 81 60 140 74 402 92 442 105 630 194 58 28 110 51
115 51 6 0 27 -27 49 -60z m3900 -566 c74 -88 90 -125 91 -198 0 -83 -37 -156
-116 -230 -72 -66 -148 -106 -246 -130 -70 -17 -76 -17 -145 0 -130 31 -239
84 -337 163 l-24 19 148 74 c157 77 343 196 476 304 45 36 85 65 89 65 5 0 33
-30 64 -67z m-3287 -79 c163 -123 420 -265 586 -325 37 -13 66 -28 64 -34 -7
-21 -158 -86 -257 -112 l-105 -27 -80 19 c-44 10 -102 29 -129 43 -181 89
-290 258 -246 379 10 25 71 123 77 123 2 0 42 -30 90 -66z"/>
<path d="M5905 9405 c-584 -37 -1027 -143 -1187 -284 -85 -76 -88 -150 -7
-226 208 -194 965 -321 1794 -300 412 10 801 57 1055 127 41 11 89 24 105 28
17 4 41 12 55 18 14 5 45 18 70 28 72 28 177 102 200 140 85 136 -69 259 -445
357 -127 34 -240 54 -490 87 -265 36 -796 47 -1150 25z m885 -35 c593 -44
1008 -149 1148 -287 59 -59 59 -97 -2 -158 -123 -122 -414 -204 -976 -272
-208 -26 -1045 -26 -1260 0 -392 47 -619 95 -800 169 -213 89 -268 181 -163
274 149 132 603 240 1153 274 96 6 193 12 215 14 72 7 537 -2 685 -14z"/>
<path d="M5960 9300 c-41 -4 -115 -10 -165 -14 -49 -4 -115 -11 -145 -16 -30
-5 -73 -11 -95 -15 -247 -34 -461 -109 -526 -183 -143 -163 223 -309 901 -357
738 -53 1531 46 1703 213 31 30 37 43 37 78 0 36 -5 47 -40 78 -106 96 -332
156 -755 202 -158 18 -793 27 -915 14z m850 -39 c427 -43 705 -113 800 -201
115 -108 -115 -220 -585 -286 -157 -21 -503 -43 -690 -43 -270 0 -692 34 -853
69 -26 6 -78 18 -117 26 -210 48 -347 126 -331 188 27 110 376 211 851 246 83
6 159 13 170 15 45 8 649 -3 755 -14z"/>
<path d="M12210 4023 c-125 -19 -211 -78 -266 -183 -27 -52 -27 -267 0 -330
62 -143 203 -275 335 -314 68 -20 119 -20 185 -2 28 8 70 20 94 26 88 23 179
140 208 266 13 62 14 85 4 141 -14 84 -63 203 -95 233 -21 20 -31 22 -77 17
-29 -4 -68 -9 -85 -13 l-33 -6 0 49 c0 90 -46 124 -167 122 -43 -1 -89 -3
-103 -6z m63 -54 c69 -19 72 -30 52 -263 -9 -113 -14 -210 -10 -215 16 -26
102 3 129 43 21 33 21 127 0 189 -15 44 -15 49 0 72 20 30 56 41 85 25 27 -14
65 -89 86 -171 34 -129 3 -258 -86 -354 -50 -54 -94 -75 -158 -75 -97 0 -179
41 -276 138 -116 115 -156 228 -135 378 23 172 162 275 313 233z"/>
<path d="M12122 3740 c-16 -15 -22 -33 -22 -61 0 -51 13 -75 50 -94 l30 -16 0
43 c0 24 3 67 6 96 7 50 6 52 -18 52 -13 0 -34 -9 -46 -20z"/>
<path d="M700 3800 c-68 -12 -111 -34 -167 -84 l-50 -45 -7 -96 c-7 -87 -5
-99 14 -129 11 -19 27 -37 35 -40 26 -10 16 -24 -37 -56 -29 -17 -96 -57 -148
-90 -52 -33 -99 -59 -105 -59 -5 -1 -21 8 -35 19 -45 35 -118 21 -166 -32 -17
-18 -23 -41 -27 -109 l-6 -86 102 -124 c157 -191 187 -219 232 -219 43 0 101
32 110 60 3 11 9 47 13 82 7 60 8 63 52 90 25 15 51 30 57 34 7 3 42 -20 80
-55 38 -36 98 -77 142 -99 70 -35 81 -37 165 -37 50 0 106 4 124 9 l33 9 -20
-34 c-12 -19 -21 -46 -21 -60 0 -24 -3 -26 -52 -27 -64 -3 -165 -49 -202 -93
-14 -16 -30 -48 -36 -70 -16 -58 -2 -224 22 -272 22 -44 83 -91 150 -114 38
-14 49 -23 54 -46 8 -38 58 -93 108 -120 30 -15 61 -22 116 -23 l75 -2 14 -86
14 -86 266 -199 c147 -110 279 -205 293 -210 34 -13 67 -4 101 27 23 22 27 33
27 82 l0 56 115 116 c63 64 128 139 145 166 28 46 30 55 30 148 0 83 -4 107
-24 150 -28 60 -93 119 -158 142 -27 9 -48 22 -48 29 0 23 -58 69 -101 80 -24
6 -69 21 -99 34 -82 33 -113 30 -161 -17 -39 -38 -40 -41 -34 -89 l6 -50 -106
-105 c-105 -104 -106 -105 -154 -105 l-48 0 -2 53 c-1 49 1 54 41 90 22 20 66
56 96 80 60 47 103 100 119 147 10 32 9 165 -2 218 -13 57 -42 102 -102 158
-71 65 -140 93 -233 93 l-65 0 28 31 c61 65 91 156 104 312 8 97 -26 159 -201
363 -12 14 -49 59 -83 101 -78 95 -117 130 -184 162 -61 29 -133 38 -199 27z
m191 -68 c70 -34 94 -59 278 -282 131 -159 161 -213 161 -285 0 -67 -15 -109
-56 -164 -54 -71 -164 -126 -275 -138 -107 -11 -233 47 -340 158 l-57 59 -63
-38 c-158 -94 -146 -83 -124 -122 38 -66 2 -124 -73 -118 -34 3 -46 15 -169
161 -73 87 -133 163 -133 169 0 5 13 23 29 39 39 38 87 39 130 3 l31 -26 258
157 c370 227 372 228 369 245 -1 8 -17 24 -36 37 l-33 22 -26 -31 c-47 -56
-145 -76 -199 -41 -38 25 -57 77 -41 110 19 38 75 80 138 103 77 28 150 23
231 -18z m513 -984 c62 -23 133 -80 165 -131 11 -18 25 -54 31 -81 20 -89 -4
-122 -192 -278 l-109 -90 20 -22 c28 -30 26 -57 -6 -88 -38 -36 -82 -43 -145
-24 -74 22 -125 66 -135 118 -7 34 -13 43 -38 50 -65 19 -138 64 -161 98 -27
38 -33 123 -13 163 48 94 187 149 296 118 l32 -9 -20 31 c-24 41 -24 62 3 99
47 67 166 87 272 46z m442 -444 c27 -9 53 -21 59 -25 5 -5 17 -9 26 -9 10 0
37 -8 61 -19 35 -15 47 -26 54 -52 8 -29 15 -35 46 -40 69 -11 146 -79 166
-147 10 -32 9 -49 -4 -93 -14 -48 -32 -69 -161 -200 l-144 -146 17 -37 18 -36
-29 -30 c-16 -17 -38 -30 -50 -30 -12 0 -137 86 -291 201 -291 217 -300 227
-247 269 23 18 36 21 74 17 l46 -6 133 134 c124 124 132 135 117 150 -26 26
-21 60 14 89 36 31 32 30 95 10z"/>
<path d="M891 3260 c-63 -39 -117 -72 -119 -75 -9 -9 49 -63 83 -80 47 -21 88
-19 144 9 57 30 86 79 77 131 -7 37 -41 85 -59 85 -7 -1 -63 -32 -126 -70z
m119 -90 c0 -12 -58 -42 -72 -38 -6 2 4 14 23 26 38 24 49 27 49 12z"/>
<path d="M1327 2575 c-15 -14 -35 -25 -43 -25 -27 0 -14 -17 25 -30 33 -11 42
-10 65 5 28 18 34 43 14 63 -17 17 -29 15 -61 -13z"/>
<path d="M1102 2405 c-28 -12 -33 -19 -30 -42 3 -24 8 -28 38 -30 28 -2 43 5
74 32 22 19 37 37 35 40 -14 13 -87 14 -117 0z"/>
<path d="M1792 1897 c-105 -105 -121 -125 -110 -138 15 -19 59 -49 70 -49 15
0 268 257 268 272 0 25 -23 38 -65 38 -38 0 -46 -6 -163 -123z"/>
<path d="M11735 3433 c-54 -3 -64 -7 -100 -42 -187 -181 -209 -218 -210 -351
0 -76 3 -90 28 -132 36 -60 86 -104 136 -119 37 -11 39 -13 30 -42 -11 -38 -6
-46 104 -174 l82 -95 80 7 c79 6 135 21 135 35 0 8 52 62 128 134 32 30 65 75
85 115 28 58 32 75 32 151 0 77 -3 90 -31 140 -38 68 -95 110 -158 117 -38 5
-46 9 -41 23 7 21 -32 77 -110 162 -66 72 -79 77 -190 71z m79 -128 c42 -47
76 -92 76 -101 0 -8 -7 -28 -15 -44 l-15 -29 54 6 c98 10 168 -43 202 -156 33
-110 -37 -273 -152 -352 -24 -16 -51 -43 -59 -59 -20 -39 -59 -64 -80 -53 -8
5 -51 53 -95 107 -85 104 -86 105 -53 170 14 27 14 28 -2 22 -9 -3 -36 -1 -59
5 -96 25 -156 111 -156 222 0 97 26 146 133 254 120 120 122 120 221 8z"/>
<path d="M11641 3134 c-16 -20 -18 -31 -10 -45 12 -23 4 -22 81 -3 80 20 87
27 46 47 -66 30 -94 31 -117 1z"/>
<path d="M11828 2853 c-43 -14 -75 -29 -72 -34 10 -18 83 -49 113 -49 22 0 37
9 60 37 28 34 29 38 14 55 -20 22 -21 22 -115 -9z"/>
<path d="M11119 2831 c-40 -13 -71 -31 -117 -68 -98 -80 -147 -272 -108 -421
35 -130 157 -287 262 -336 49 -23 67 -26 183 -27 l129 -1 60 41 c70 48 111 94
149 171 26 52 28 63 28 190 0 118 -3 139 -21 170 -24 42 -56 60 -109 60 -79 1
-84 5 -78 66 11 104 -57 149 -242 158 -60 3 -122 2 -136 -3z m177 -52 c73 -37
74 -52 14 -241 -28 -90 -57 -179 -64 -200 -17 -45 -7 -58 47 -58 82 0 131 79
126 206 -2 49 1 60 20 75 13 11 34 19 47 19 41 0 60 -33 74 -130 22 -150 -9
-250 -106 -347 -59 -60 -121 -92 -174 -93 -139 -1 -314 179 -357 367 -13 56
-14 78 -3 136 7 38 23 93 35 121 24 53 89 123 140 149 46 24 148 22 201 -4z"/>
<path d="M11122 2588 c-25 -7 -37 -18 -48 -45 -18 -41 -13 -69 17 -107 25 -31
36 -25 49 25 5 19 15 55 24 81 17 53 11 60 -42 46z"/>
<path d="M10516 2338 c-65 -44 -121 -89 -123 -99 -3 -11 -14 -19 -27 -19 -24
0 -212 -119 -238 -151 -10 -12 -18 -36 -18 -55 l0 -34 -50 0 c-61 0 -130 -32
-179 -84 -25 -26 -44 -36 -65 -36 -46 0 -129 -43 -175 -90 -83 -86 -115 -265
-71 -407 24 -81 77 -167 136 -227 41 -41 145 -96 180 -96 12 0 41 -7 64 -15
23 -8 62 -15 86 -15 l44 0 -16 -25 c-22 -34 -13 -100 18 -132 29 -29 160 -67
204 -58 18 3 43 14 55 23 21 16 146 86 231 129 56 29 72 81 44 147 -13 32 -65
66 -100 66 -9 0 -21 12 -27 28 -26 63 -51 129 -59 152 -5 14 -17 48 -28 75
-11 28 -36 95 -57 150 -20 55 -43 114 -51 132 -8 17 -14 40 -14 51 0 46 20 27
61 -56 23 -48 53 -104 66 -124 43 -70 123 -103 272 -115 66 -5 83 -3 118 15
38 20 113 95 113 114 0 4 12 8 26 8 40 0 74 26 129 97 80 104 98 139 91 177
-9 47 -45 82 -93 90 l-40 7 -97 199 c-53 109 -103 203 -111 210 -13 11 -147
50 -170 50 -5 -1 -63 -37 -129 -82z m167 24 c8 -9 61 -110 116 -224 l101 -206
39 5 c37 5 41 3 60 -28 12 -19 21 -39 21 -46 0 -14 -88 -133 -139 -186 -29
-31 -41 -37 -63 -33 -24 5 -32 -1 -58 -39 -46 -67 -93 -95 -159 -95 -54 0
-127 26 -150 54 -10 12 -132 255 -144 286 -3 9 -6 3 -6 -12 -1 -39 -15 -35
-36 12 -15 33 -24 41 -54 46 -20 4 -42 12 -50 18 -12 9 -13 7 -8 -14 4 -14 1
-51 -5 -82 -10 -48 -9 -62 4 -95 9 -21 60 -155 113 -298 54 -142 99 -265 102
-271 3 -8 18 -10 42 -7 32 4 41 1 59 -22 22 -27 28 -70 14 -91 -4 -5 -43 -30
-87 -54 -136 -73 -169 -92 -190 -106 -31 -22 -81 -18 -99 8 -32 46 -20 81 48
136 14 11 13 18 -6 70 -12 31 -22 58 -23 60 -1 1 -34 -14 -73 -33 -57 -29 -82
-36 -127 -36 -108 0 -220 82 -283 207 -41 82 -54 134 -53 223 2 162 58 253
189 304 23 9 53 17 65 17 13 0 38 15 58 36 62 65 154 97 214 74 24 -9 28 -9
18 1 -7 7 -13 19 -13 26 0 11 5 11 20 3 20 -11 30 3 10 15 -17 10 -11 43 11
64 41 38 187 131 206 131 30 0 43 -20 146 -233 53 -108 103 -200 112 -203 18
-7 61 28 70 57 4 12 -23 78 -69 173 l-76 155 -48 -6 c-36 -4 -51 -1 -60 10
-16 19 -25 78 -15 93 11 16 216 153 229 154 6 0 18 -8 27 -18z"/>
<path d="M10188 1943 c6 -2 18 -2 25 0 6 3 1 5 -13 5 -14 0 -19 -2 -12 -5z"/>
<path d="M10240 1946 c0 -2 8 -10 18 -17 15 -13 16 -12 3 4 -13 16 -21 21 -21
13z"/>
<path d="M9840 1667 c-16 -10 -30 -20 -30 -22 0 -1 -5 -26 -10 -56 -18 -92 14
-197 81 -274 25 -28 38 -35 69 -35 31 0 44 7 69 35 27 31 29 38 20 63 -82 209
-102 260 -106 279 -7 29 -54 35 -93 10z m147 -264 c9 -29 13 -56 9 -60 -15
-16 -52 74 -61 147 l-5 45 20 -40 c11 -22 27 -64 37 -92z"/>
<path d="M2530 1832 c-146 -23 -332 -198 -383 -361 -23 -73 -21 -125 7 -214
48 -150 88 -198 214 -254 99 -44 272 -32 359 24 21 14 22 14 16 -21 -5 -34 25
-142 50 -173 16 -21 337 -173 366 -173 37 0 70 26 88 68 l15 36 44 -90 c24
-49 56 -99 70 -110 37 -30 117 -54 181 -54 48 0 57 -4 79 -29 72 -86 279 -77
334 16 24 41 26 100 4 145 -15 33 -15 34 40 134 93 170 105 227 62 312 -13 26
-26 59 -29 73 -4 14 -24 46 -46 70 -117 133 -337 155 -475 46 -35 -28 -32 -20
49 101 95 143 103 169 71 247 -9 21 -16 45 -16 55 0 32 -52 65 -126 78 -38 7
-99 20 -135 28 -60 14 -70 14 -96 0 -16 -8 -40 -35 -53 -59 l-24 -45 19 -55
18 -55 -153 -229 c-84 -125 -158 -233 -164 -239 -6 -7 -25 -10 -43 -7 -29 5
-31 7 -23 29 6 16 3 46 -9 96 l-19 73 48 5 c101 11 130 87 94 245 -35 150 -70
203 -170 257 -41 22 -68 29 -135 32 -46 3 -104 1 -129 -2z m246 -62 c104 -59
155 -160 133 -259 -12 -54 -39 -71 -118 -72 -36 -1 -131 -4 -211 -8 -139 -6
-145 -7 -148 -28 -5 -32 24 -80 58 -98 40 -21 99 -19 170 6 71 24 107 19 120
-17 15 -39 12 -51 -16 -78 -74 -68 -233 -112 -338 -94 -154 27 -256 124 -256
244 0 100 41 187 138 295 90 101 175 138 317 138 93 1 104 -1 151 -29z m659
-35 c132 -26 165 -42 165 -78 0 -19 -93 -162 -359 -554 l-103 -152 26 -31 c14
-18 26 -40 26 -51 0 -26 -43 -69 -69 -69 -22 0 -332 149 -343 165 -12 16 1 48
30 74 22 20 33 23 73 18 l47 -6 153 227 c84 125 170 250 191 279 l38 52 -29
15 c-28 15 -41 34 -41 61 0 15 47 75 59 75 4 0 65 -11 136 -25z m430 -450 c94
-40 155 -111 155 -181 0 -51 -17 -91 -104 -248 -36 -66 -66 -123 -66 -128 0
-4 9 -8 19 -8 32 0 51 -36 39 -73 -16 -48 -37 -66 -95 -83 -45 -13 -63 -14
-106 -4 -69 17 -85 26 -107 62 -18 30 -21 31 -82 30 -87 -3 -135 11 -174 49
-43 42 -62 120 -42 175 28 77 122 153 211 168 l38 7 -31 29 c-36 34 -40 79
-11 127 23 36 97 83 150 94 53 12 160 3 206 -16z m-407 -115 c-7 -26 -7 -49 0
-68 10 -29 8 -31 -31 -48 -84 -38 -175 -150 -178 -219 0 -18 -1 -18 -11 3 -10
20 1 41 107 197 65 96 119 175 120 175 2 0 -2 -18 -7 -40z"/>
<path d="M2539 1631 c-51 -51 -42 -61 61 -61 88 0 90 1 90 23 0 66 -98 90
-151 38z"/>
<path d="M3726 1127 c-7 -19 -24 -42 -37 -51 -24 -17 -23 -17 29 -14 46 3 56
7 70 31 20 32 8 60 -26 65 -16 3 -25 -5 -36 -31z"/>
<path d="M3615 905 c-17 -7 -39 -23 -50 -35 -26 -29 -10 -55 35 -55 29 0 37 6
61 45 15 25 28 48 28 53 1 11 -41 7 -74 -8z"/>
<path d="M9110 1518 c-140 -49 -258 -228 -260 -393 -1 -102 46 -260 100 -335
72 -101 267 -183 379 -159 111 24 235 117 280 209 29 60 61 184 61 236 0 49
-33 88 -89 105 -20 6 -45 17 -55 24 -18 14 -18 15 3 50 51 88 8 157 -147 231
-121 58 -178 64 -272 32z m173 -30 c23 -7 61 -31 84 -54 67 -63 64 -73 -82
-269 l-126 -169 21 -20 c15 -16 33 -21 71 -21 47 0 54 3 83 37 26 30 56 99 71
163 2 6 14 17 28 24 39 21 85 -1 93 -43 15 -85 -45 -255 -116 -326 -52 -52
-157 -102 -225 -108 -88 -7 -184 57 -234 156 -42 84 -55 144 -56 257 0 99 3
116 27 168 15 32 53 84 84 117 84 89 177 118 277 88z"/>
<path d="M9095 1286 c-28 -28 -40 -66 -31 -98 7 -28 23 -54 29 -48 2 3 27 36
56 75 48 64 51 70 35 82 -27 20 -62 15 -89 -11z"/>
<path d="M8450 1413 c-31 -11 -49 -36 -81 -111 -18 -42 -49 -102 -69 -132 -46
-69 -53 -90 -44 -135 5 -28 15 -41 49 -60 47 -28 42 -14 80 -240 25 -146 43
-199 79 -233 37 -37 182 -102 225 -102 41 0 129 40 174 79 36 32 97 139 97
170 0 38 -40 80 -118 122 l-79 42 -12 80 c-7 43 -14 84 -17 91 -3 7 11 17 30
24 54 20 76 55 76 119 0 61 -22 93 -86 119 -19 8 -56 36 -82 63 -77 78 -171
123 -222 104z m84 -55 c14 -22 18 -36 30 -89 5 -25 8 -26 44 -19 75 13 114
-26 96 -98 -7 -30 -18 -41 -57 -62 l-48 -25 6 -45 c6 -42 24 -148 47 -269 l10
-53 35 36 c40 41 73 46 104 15 17 -17 20 -29 15 -61 -13 -82 -89 -162 -183
-193 -49 -16 -53 -16 -97 3 -28 13 -53 33 -65 54 -21 33 -25 52 -56 233 -37
223 -35 215 -64 215 -38 0 -51 12 -58 53 -4 29 -1 43 19 69 35 47 76 123 100
185 10 29 27 57 36 63 30 17 71 12 86 -12z"/>
<path d="M5105 1268 c-117 -15 -124 -17 -150 -56 -33 -49 -33 -101 0 -140 14
-17 25 -31 25 -33 0 -2 -44 -4 -97 -4 -93 0 -102 -2 -173 -37 -115 -56 -208
-160 -261 -290 -17 -41 -22 -75 -23 -153 -1 -97 0 -102 33 -155 18 -30 36 -57
40 -60 4 -3 24 -27 45 -55 63 -84 126 -116 238 -120 42 -2 85 -8 96 -14 28
-15 74 -14 189 6 107 18 136 31 159 74 21 41 17 81 -11 123 -14 20 -25 40 -25
44 0 7 46 156 90 292 29 88 114 358 125 398 5 16 -5 40 -40 93 -26 38 -57 77
-70 85 -24 15 -82 16 -190 2z m181 -41 l27 -24 -32 -104 c-18 -57 -39 -122
-46 -144 -8 -22 -35 -107 -60 -190 -26 -82 -58 -184 -71 -225 -30 -93 -30 -96
4 -112 23 -12 27 -19 26 -56 0 -30 -7 -47 -20 -56 -24 -18 -107 -35 -210 -42
-65 -5 -82 -4 -92 9 -10 12 -26 14 -66 10 -115 -12 -211 39 -261 138 -31 59
-34 168 -8 245 47 142 178 277 303 313 52 16 140 16 189 1 19 -5 35 -9 36 -7
1 1 8 22 16 47 l14 45 -30 15 c-24 12 -31 23 -33 51 -5 62 17 76 143 92 61 8
118 15 127 16 9 0 29 -10 44 -22z"/>
<path d="M4835 838 c-62 -34 -100 -90 -121 -178 -17 -72 -17 -95 1 -135 24
-49 97 -74 124 -41 11 13 84 230 96 287 5 22 1 34 -19 54 -27 27 -49 31 -81
13z m6 -248 c-28 -88 -43 -106 -30 -35 9 49 40 115 53 115 1 0 -9 -36 -23 -80z"/>
<path d="M7303 1254 c-39 -23 -46 -24 -85 -13 -61 16 -230 12 -281 -7 -310
-116 -468 -343 -467 -670 1 -129 42 -258 110 -344 37 -47 181 -157 238 -181
97 -42 255 -47 367 -12 97 30 178 81 258 161 73 73 77 80 83 133 8 74 -10 112
-87 179 -67 58 -111 71 -173 50 -44 -14 -92 -75 -102 -127 -6 -31 -13 -38 -61
-59 -35 -16 -72 -24 -108 -24 -51 0 -56 2 -72 33 -26 46 -26 258 0 338 41 129
130 209 234 209 l52 0 11 -42 c6 -24 13 -51 16 -60 3 -10 35 -43 70 -73 57
-48 70 -55 109 -55 24 0 56 5 70 12 50 22 55 49 55 268 l0 201 -42 40 c-46 44
-94 69 -130 69 -13 0 -42 -12 -65 -26z m101 -20 c14 -5 16 -32 16 -200 0 -218
-3 -226 -75 -240 -37 -7 -75 14 -75 42 0 26 -41 122 -63 148 -13 15 -44 33
-69 41 -41 12 -55 12 -113 -3 -152 -37 -244 -192 -245 -413 0 -116 20 -179 77
-240 73 -78 167 -88 282 -31 47 24 54 31 57 61 5 40 38 97 64 111 28 15 93 12
117 -5 26 -18 38 -70 28 -121 -9 -51 -130 -168 -217 -211 -153 -76 -342 -83
-467 -18 -150 77 -231 266 -210 485 27 266 153 440 396 543 84 35 204 45 295
23 68 -16 68 -16 104 9 36 25 68 31 98 19z"/>
<path d="M7844 1101 c-98 -24 -198 -113 -235 -210 -19 -49 -20 -63 -10 -111 7
-40 19 -62 39 -80 l29 -25 -24 -34 c-27 -40 -53 -121 -53 -165 0 -87 53 -166
143 -214 27 -15 64 -35 81 -44 59 -32 128 -23 216 30 39 23 56 27 132 27 80 0
89 2 129 30 24 17 58 50 76 74 27 34 33 52 33 90 0 55 -20 87 -74 120 l-34 21
-7 118 c-7 123 -22 193 -50 236 -20 31 -142 114 -194 132 -39 14 -147 17 -197
5z m218 -52 c63 -32 79 -77 97 -279 l16 -175 35 3 c43 4 60 -16 60 -75 0 -39
-5 -49 -49 -93 -65 -65 -143 -87 -203 -56 -24 13 -29 11 -73 -20 -111 -78
-204 -79 -270 -1 -39 46 -50 87 -42 157 8 62 29 104 80 158 l41 42 -31 0 c-19
0 -43 10 -60 24 -25 22 -28 31 -28 83 1 52 5 66 40 117 85 126 262 178 387
115z"/>
<path d="M7867 909 c-13 -8 -17 -18 -12 -37 3 -15 1 -42 -4 -60 -11 -37 -11
-37 42 -2 31 21 37 30 35 54 -4 36 -35 59 -61 45z"/>
<path d="M7902 642 c-38 -40 -52 -96 -29 -119 14 -15 18 -15 42 1 34 23 37 32
27 96 l-8 55 -32 -33z"/>
<path d="M5566 934 c-142 -44 -247 -176 -217 -275 6 -20 18 -42 26 -49 13 -11
9 -18 -29 -52 -95 -83 -127 -219 -73 -309 14 -24 57 -74 95 -110 59 -56 75
-67 115 -72 46 -6 118 3 167 21 19 7 31 5 53 -12 41 -30 147 -34 208 -8 64 28
105 69 119 121 14 55 8 81 -30 123 -17 18 -30 35 -30 38 0 4 10 49 21 101 12
52 24 126 26 165 6 89 -9 121 -104 221 -61 64 -75 74 -137 92 -79 24 -141 26
-210 5z m201 -39 c29 -9 69 -31 94 -54 l44 -39 0 -88 c0 -82 -7 -119 -50 -291
l-14 -53 29 0 c43 0 63 -26 57 -73 -15 -107 -184 -168 -282 -101 -36 24 -39
24 -74 11 -119 -48 -217 -25 -265 62 -14 27 -26 65 -26 85 0 74 52 157 132
208 l48 32 -29 18 c-57 37 -64 110 -15 175 77 103 221 147 351 108z"/>
<path d="M5626 748 c-3 -7 -7 -26 -11 -43 -4 -16 -14 -39 -23 -49 -16 -18 -16
-19 8 -12 14 4 37 10 52 13 52 10 48 103 -4 103 -10 0 -20 -6 -22 -12z"/>
<path d="M5600 488 c-50 -34 -77 -75 -64 -96 16 -24 50 -26 72 -4 17 17 40
108 29 118 -2 2 -19 -6 -37 -18z"/>
</g>
</svg>
